<svg width="176" height="30" viewBox="0 0 176 30" fill="none" xmlns="http://www.w3.org/2000/svg">
<g id="Logo">
<g id="Subtract">
<path fill-rule="evenodd" clip-rule="evenodd" d="M18.8082 0.542434C18.5723 0.523005 18.1048 0.505735 17.6608 0.501418C17.2491 0.499259 16.8523 0.499259 16.7816 0.503577C16.7108 0.507894 16.432 0.525164 16.1596 0.544592C15.8873 0.564021 15.5977 0.589926 15.5162 0.600719C15.4347 0.613672 15.2546 0.637418 15.1195 0.652529C14.9844 0.669799 14.7763 0.697862 14.6584 0.717291C14.5404 0.73456 14.401 0.760465 14.3474 0.773417C14.2938 0.78637 14.1737 0.810116 14.0793 0.827386C13.985 0.842497 13.8542 0.866243 13.7898 0.879195C13.7255 0.892147 13.6097 0.922369 13.5325 0.946115C13.4553 0.967703 13.3695 0.987131 13.3395 0.987131C13.3094 0.987131 13.2237 1.0044 13.1464 1.02815C13.0934 1.04446 13.013 1.06791 12.9394 1.08938C12.9059 1.09917 12.8737 1.10855 12.8462 1.11665C12.7583 1.1404 12.636 1.17494 12.5781 1.19221C12.5181 1.20732 12.4216 1.23754 12.3637 1.25697C12.3036 1.2764 12.2135 1.30446 12.1599 1.31957C12.1462 1.324 12.1309 1.32884 12.1151 1.33386C12.0692 1.34844 12.0187 1.36446 11.9884 1.3757C11.9476 1.39081 11.8618 1.42103 11.7975 1.44262C11.7331 1.46637 11.6731 1.48364 11.6645 1.48364C11.6538 1.48364 11.6131 1.49875 11.5744 1.51602C11.538 1.53329 11.4629 1.56135 11.4093 1.58078C11.3837 1.59008 11.3516 1.60136 11.32 1.61248C11.2855 1.6246 11.2516 1.63654 11.227 1.64554C11.1798 1.66065 11.1112 1.68872 11.0769 1.70815C11.0426 1.72757 10.9997 1.74269 10.9847 1.74269C10.9718 1.74269 10.9332 1.75564 10.8989 1.77291C10.8667 1.79018 10.7338 1.84846 10.6051 1.90459C10.5861 1.91289 10.5662 1.92151 10.5461 1.9303C10.4297 1.98098 10.3008 2.03706 10.2405 2.06649C10.1697 2.09887 9.93382 2.21329 9.71507 2.32338C9.49632 2.43132 9.25184 2.55868 9.1682 2.60618C9.11244 2.63639 9.03858 2.67716 8.97457 2.7125C8.94255 2.73018 8.913 2.74649 8.8894 2.75944C8.81863 2.79614 8.74571 2.83716 8.72855 2.85227C8.7114 2.86738 8.67279 2.89113 8.64277 2.90408C8.61274 2.91919 8.56342 2.94725 8.53125 2.96884C8.50122 2.98827 8.4133 3.04224 8.33823 3.08757C8.31602 3.10138 8.29102 3.1168 8.26559 3.13247C8.20757 3.16825 8.14735 3.20537 8.11305 3.22789C8.06372 3.26027 7.98652 3.31208 7.94148 3.3423C7.89645 3.37468 7.8171 3.42865 7.76562 3.46103C7.71415 3.49557 7.65625 3.53443 7.63695 3.54522C7.62144 3.55563 7.58931 3.5758 7.55948 3.59452C7.55219 3.59909 7.54504 3.60358 7.5383 3.60782C7.50398 3.63157 7.46324 3.66179 7.45251 3.67474C7.44179 3.6877 7.37745 3.73303 7.31311 3.77836C7.24877 3.82154 7.13082 3.90573 7.05362 3.96185C6.97426 4.01798 6.87347 4.09354 6.82843 4.13239C6.78125 4.17125 6.6633 4.26839 6.5625 4.34827C6.4617 4.42814 6.37592 4.49938 6.36949 4.50585C6.36305 4.51233 6.30086 4.5663 6.23009 4.62458C6.15931 4.68287 5.97488 4.84262 5.82261 4.98077C5.67034 5.11677 5.37439 5.39741 5.16636 5.6068C4.95833 5.81404 4.6924 6.09036 4.5723 6.22204C4.45435 6.35372 4.28922 6.54153 4.20343 6.64299L4.18998 6.6589C4.10528 6.75908 3.992 6.89306 3.92892 6.9668C3.86458 7.04451 3.75735 7.17836 3.69087 7.26471C3.62439 7.35321 3.54075 7.46331 3.50214 7.51296C3.4765 7.54594 3.4395 7.59702 3.40498 7.64468C3.38753 7.66877 3.37071 7.69199 3.35631 7.71156C3.32828 7.75314 3.27995 7.82027 3.23296 7.88552C3.21165 7.91512 3.19061 7.94434 3.17188 7.97061C3.11397 8.0548 2.981 8.24908 2.87806 8.40235C2.79603 8.5245 2.7208 8.63979 2.68712 8.69141C2.67853 8.70456 2.67265 8.71358 2.67004 8.71753C2.66349 8.72742 2.65249 8.74626 2.63959 8.76836C2.62715 8.78967 2.61295 8.814 2.59926 8.83626C2.57353 8.88375 2.53278 8.95067 2.50919 8.98521C2.4856 9.01975 2.45129 9.08019 2.43413 9.11473C2.41483 9.14927 2.36121 9.2421 2.31403 9.31981C2.26685 9.39753 2.21324 9.49035 2.19608 9.52489C2.18697 9.54119 2.16974 9.57383 2.14868 9.61375C2.12511 9.65841 2.09673 9.71219 2.06955 9.76235C2.01808 9.85733 1.88725 10.1142 1.78002 10.3344C1.72087 10.4559 1.66367 10.5741 1.6214 10.6614C1.58704 10.7324 1.56253 10.7831 1.55484 10.7985C1.53983 10.8331 1.50766 10.9065 1.48192 10.9604C1.47124 10.9849 1.45748 11.0173 1.44323 11.0508C1.42601 11.0914 1.40808 11.1336 1.394 11.1655C1.37814 11.2028 1.35902 11.2449 1.34317 11.2799C1.3333 11.3017 1.3247 11.3206 1.31893 11.3339C1.30178 11.3663 1.28676 11.4051 1.28676 11.4203C1.28676 11.4332 1.26746 11.4829 1.24387 11.5282C1.22028 11.5714 1.20098 11.6189 1.20098 11.6296C1.20098 11.6404 1.18168 11.6923 1.16023 11.7441C1.13664 11.7937 1.11091 11.8649 1.10233 11.8995C1.09375 11.934 1.07445 11.9837 1.05729 12.0074C1.04228 12.0312 1.02941 12.0657 1.02941 12.083C1.02941 12.1002 1.01011 12.1672 0.98652 12.2298C0.962929 12.2902 0.924326 12.3938 0.90288 12.4564C0.881434 12.5169 0.840686 12.6421 0.814951 12.7306C0.789216 12.8191 0.754902 12.927 0.737745 12.9681C0.722733 13.0091 0.703431 13.0825 0.694853 13.13C0.686274 13.1775 0.671262 13.2357 0.658395 13.2595C0.645527 13.2832 0.624081 13.3566 0.609069 13.4214C0.598603 13.4665 0.583968 13.5274 0.571704 13.5784C0.566376 13.6006 0.561495 13.6209 0.557598 13.6373C0.544108 13.6858 0.520226 13.7796 0.49996 13.8592L0.49326 13.8855C0.490657 13.8957 0.487927 13.9064 0.485118 13.9174C0.464778 13.9971 0.440227 14.0934 0.428922 14.1446C0.416054 14.205 0.390319 14.3302 0.373162 14.4252C0.358149 14.5202 0.336703 14.613 0.33027 14.6303C0.321691 14.6475 0.30239 14.7404 0.285233 14.8354C0.270221 14.9303 0.242341 15.1095 0.223039 15.2347C0.205882 15.3599 0.178002 15.524 0.160846 15.6017C0.141544 15.6794 0.128676 15.7809 0.128676 15.8284C0.128676 15.8759 0.113664 16.0313 0.0965073 16.1738C0.0772059 16.3162 0.049326 16.6508 0.0321691 16.9185C0.0150123 17.1862 0 17.7151 0 18.095C0 18.475 0.0150123 19.019 0.0321691 19.3039C0.049326 19.5889 0.0793505 19.9235 0.0965073 20.0487C0.113664 20.1739 0.128676 20.3185 0.128676 20.3725C0.128676 20.4265 0.141544 20.5322 0.158701 20.6099C0.175858 20.6877 0.205882 20.8582 0.225184 20.9877C0.244485 21.1172 0.272365 21.2986 0.287377 21.3871C0.30239 21.4756 0.321691 21.5641 0.33027 21.5814C0.336703 21.5986 0.358149 21.6915 0.373162 21.7865C0.390319 21.8814 0.416054 22.0088 0.428922 22.0671C0.441789 22.1275 0.471814 22.2441 0.49326 22.3261C0.501604 22.358 0.510922 22.3945 0.520078 22.4304C0.534453 22.4867 0.548427 22.5414 0.557598 22.5744C0.561494 22.5907 0.566373 22.611 0.5717 22.6332C0.583965 22.6842 0.598602 22.7451 0.609069 22.7903C0.624081 22.855 0.645527 22.9284 0.658395 22.9522C0.671262 22.9759 0.686274 23.0342 0.694853 23.0817C0.703431 23.1292 0.722733 23.2026 0.737745 23.2436C0.754902 23.2846 0.789216 23.3925 0.814951 23.4811C0.840686 23.5696 0.881434 23.6948 0.90288 23.7574C0.924326 23.8178 0.962929 23.9214 0.98652 23.984C1.01011 24.0445 1.02941 24.1114 1.02941 24.1287C1.02941 24.1459 1.04228 24.1805 1.05729 24.2042C1.07445 24.228 1.09375 24.2755 1.10233 24.3122C1.11091 24.3489 1.13664 24.4179 1.16023 24.4697C1.18168 24.5194 1.20098 24.5712 1.20098 24.582C1.20098 24.5928 1.22028 24.6403 1.24387 24.6856C1.26746 24.7288 1.28676 24.7806 1.28676 24.7979C1.28676 24.8151 1.29963 24.8497 1.31679 24.8734C1.3318 24.8972 1.35325 24.9403 1.36183 24.9706C1.3704 25.0008 1.41115 25.0979 1.4519 25.1864C1.48189 25.2552 1.51964 25.3383 1.54505 25.3942C1.55235 25.4103 1.55863 25.4241 1.56342 25.4347C1.58487 25.4822 1.70711 25.7304 1.83364 25.9852C1.95803 26.2399 2.09957 26.5184 2.14675 26.6004L2.15747 26.6199C2.19996 26.6973 2.24675 26.7825 2.26256 26.8163C2.28186 26.853 2.31403 26.9091 2.33762 26.9458C2.35907 26.9825 2.41697 27.0796 2.4663 27.1617C2.51562 27.2437 2.57353 27.3409 2.59498 27.3776C2.61857 27.4142 2.65717 27.4769 2.68076 27.5179C2.70435 27.5589 2.75797 27.6431 2.80086 27.7014C2.84375 27.7618 2.91238 27.8525 2.95527 27.9064C2.99602 27.9604 3.15901 28.1288 3.31342 28.2842C3.46783 28.4396 3.66513 28.6145 3.75092 28.6728C3.83456 28.7332 3.94608 28.8066 3.9954 28.839C4.04473 28.8714 4.10907 28.9102 4.13909 28.9275C4.16912 28.9448 4.23989 28.9836 4.29994 29.016C4.35784 29.0484 4.48866 29.111 4.58946 29.152C4.69026 29.193 4.82537 29.247 4.88971 29.2686C4.95404 29.2923 5.06127 29.3269 5.12561 29.3441C5.18995 29.3636 5.34007 29.396 5.45803 29.4197C5.57598 29.4413 5.75827 29.4715 5.8655 29.4845C5.97488 29.4974 6.20221 29.5039 6.39093 29.4974C6.57322 29.4909 6.81985 29.4715 6.93781 29.4521C7.05576 29.4305 7.19945 29.4003 7.2595 29.383C7.3174 29.3657 7.41391 29.342 7.47396 29.329C7.53186 29.3161 7.59191 29.2988 7.60263 29.2902C7.61336 29.2794 7.65411 29.2664 7.68842 29.2578C7.72273 29.2492 7.78278 29.2297 7.8171 29.2146C7.82859 29.2096 7.84612 29.2016 7.86699 29.1921C7.90842 29.1732 7.96306 29.1484 8.01011 29.1283C8.08088 29.0959 8.1538 29.0614 8.17096 29.0506C8.18097 29.0443 8.20851 29.0299 8.24251 29.0121C8.26676 28.9995 8.29429 28.9851 8.32108 28.9707C8.38542 28.9383 8.51624 28.8584 8.6106 28.7937C8.70496 28.7289 8.84865 28.621 8.93229 28.5519C9.01593 28.485 9.18107 28.3274 9.29902 28.2043C9.41912 28.0835 9.57353 27.9064 9.64216 27.8158C9.71293 27.7251 9.83303 27.5546 9.91238 27.438C9.99387 27.3214 10.0925 27.1789 10.1333 27.1185C10.144 27.1031 10.1564 27.0854 10.1695 27.0665C10.2062 27.014 10.2485 26.9532 10.277 26.9134C10.2883 26.8966 10.3079 26.868 10.3326 26.8317C10.3871 26.7518 10.467 26.6348 10.5407 26.5249C10.648 26.3651 10.7702 26.1859 10.8131 26.1255C10.856 26.0672 10.9847 25.8816 11.0962 25.7153C11.2077 25.5491 11.3407 25.3548 11.39 25.2836C11.4393 25.2123 11.5037 25.1282 11.5294 25.0958C11.5573 25.0612 11.5809 25.0224 11.5809 25.0094C11.5809 24.9943 11.6002 24.9619 11.6216 24.9382C11.6431 24.9144 11.6988 24.841 11.7439 24.7763C11.7773 24.7282 11.8332 24.6456 11.8844 24.57C11.9021 24.5438 11.9193 24.5184 11.9347 24.4957C11.9643 24.4521 11.9995 24.4008 12.0325 24.3526C12.0667 24.3029 12.0985 24.2565 12.1192 24.2258C12.1435 24.1928 12.178 24.1426 12.2132 24.0914C12.2402 24.0522 12.2675 24.0125 12.2907 23.9797C12.3422 23.9042 12.4688 23.7185 12.5717 23.5696C12.6127 23.5103 12.6581 23.4441 12.7016 23.3808C12.7672 23.2851 12.8285 23.1958 12.8634 23.1464C12.9103 23.08 12.984 22.9709 13.0445 22.8814C13.0586 22.8605 13.0721 22.8406 13.0843 22.8226C13.1082 22.7885 13.1343 22.751 13.1598 22.7144C13.2051 22.6494 13.2483 22.5874 13.273 22.5528C13.3094 22.4988 13.3824 22.3931 13.436 22.3153C13.4874 22.2376 13.5775 22.1059 13.6376 22.0239C13.6976 21.9419 13.7619 21.8469 13.7791 21.8145C13.7963 21.78 13.9142 21.6116 14.0407 21.4389C14.1694 21.264 14.3581 21.0331 14.4654 20.923C14.5726 20.815 14.7506 20.6531 14.8621 20.5646C14.9737 20.4739 15.1238 20.3639 15.1945 20.3164C15.2653 20.271 15.3511 20.2171 15.3876 20.1976C15.424 20.1782 15.5055 20.135 15.5699 20.1026C15.6342 20.0703 15.7307 20.0249 15.7843 20.0012C15.8163 19.9883 15.8544 19.9716 15.8876 19.957C15.9101 19.9471 15.9304 19.9382 15.9452 19.9321C15.9816 19.917 16.0567 19.8889 16.1167 19.8673C16.1746 19.8479 16.2776 19.8155 16.3419 19.7983C16.4062 19.781 16.4985 19.7572 16.5457 19.7465C16.5928 19.7357 16.7279 19.7098 16.8459 19.6882C17.011 19.6579 17.1676 19.6493 17.5214 19.6493C17.8839 19.6493 18.0147 19.6579 18.1369 19.6882C18.2227 19.7076 18.3192 19.7249 18.3514 19.7249C18.3857 19.7249 18.4801 19.7443 18.5616 19.768C18.6138 19.7846 18.6861 19.8065 18.7517 19.8264C18.7886 19.8375 18.8233 19.848 18.8511 19.8566C18.9283 19.8825 19.0184 19.9148 19.0548 19.9299C19.0913 19.9472 19.1771 19.9861 19.2479 20.0163C19.3186 20.0487 19.4151 20.094 19.4623 20.1178C19.4958 20.1346 19.539 20.158 19.5744 20.1771C19.5888 20.1849 19.6019 20.192 19.6124 20.1976C19.6489 20.2171 19.7347 20.271 19.8055 20.3164C19.8762 20.3639 20.0263 20.4739 20.1379 20.5646C20.2494 20.6531 20.4274 20.8129 20.5325 20.9208C20.6376 21.0287 20.7898 21.2101 20.8735 21.3223C20.9571 21.4346 21.045 21.5555 21.0708 21.5922C21.0965 21.6289 21.1909 21.7649 21.2788 21.8944C21.3081 21.9375 21.3407 21.986 21.3734 22.0344C21.4387 22.1313 21.504 22.2283 21.5426 22.283C21.5788 22.3342 21.6242 22.3998 21.6631 22.456C21.6864 22.4898 21.7075 22.5201 21.7227 22.542C21.7434 22.5727 21.7752 22.6191 21.8094 22.6688C21.8424 22.717 21.8776 22.7683 21.9072 22.8118C21.9672 22.9004 22.0466 23.0148 22.0809 23.0623C22.0904 23.076 22.1027 23.0938 22.1167 23.1139C22.153 23.1662 22.2002 23.2343 22.2374 23.2889C22.2911 23.3645 22.3919 23.5134 22.4648 23.6214C22.5377 23.7293 22.6428 23.8847 22.7007 23.9668C22.7369 24.018 22.7823 24.0836 22.8212 24.1398C22.8445 24.1736 22.8655 24.2039 22.8808 24.2258C22.9015 24.2565 22.9333 24.3029 22.9675 24.3526C23.0005 24.4008 23.0357 24.4521 23.0653 24.4957C23.0807 24.5185 23.0979 24.5439 23.1157 24.5701C23.1668 24.6457 23.2227 24.7282 23.2561 24.7763C23.3012 24.841 23.3569 24.9144 23.3784 24.9382C23.3998 24.9619 23.4191 24.9943 23.4191 25.0094C23.4191 25.0224 23.4427 25.0612 23.4706 25.0958C23.4963 25.1282 23.5607 25.2123 23.61 25.2836C23.6593 25.3548 23.7923 25.5491 23.9038 25.7153C24.0153 25.8816 24.144 26.0672 24.1869 26.1255C24.2298 26.1859 24.352 26.3651 24.4593 26.5249C24.5329 26.6346 24.6127 26.7515 24.6672 26.8314C24.692 26.8678 24.7116 26.8965 24.723 26.9134C24.7515 26.9532 24.794 27.0141 24.8306 27.0668C24.8437 27.0855 24.856 27.1032 24.8667 27.1185C24.9075 27.1789 25.0061 27.3214 25.0876 27.438C25.167 27.5546 25.2935 27.7294 25.3686 27.8266C25.4436 27.9237 25.6023 28.1029 25.7224 28.2259C25.8404 28.349 26.0205 28.5152 26.1213 28.5951C26.2221 28.6749 26.3615 28.7786 26.4323 28.8239C26.5031 28.8714 26.6725 28.9664 26.8076 29.0376C26.9427 29.1067 27.0778 29.1715 27.1078 29.1822C27.1346 29.19 27.211 29.2183 27.2851 29.2458L27.3116 29.2556C27.3931 29.288 27.5153 29.3247 27.5797 29.3398C27.644 29.3549 27.7083 29.3722 27.7191 29.3787C27.7298 29.3873 27.837 29.4089 27.955 29.4283C28.0729 29.4478 28.2509 29.4737 28.3517 29.4866C28.4525 29.4974 28.6734 29.5039 28.845 29.4974C29.0165 29.4909 29.2803 29.465 29.4347 29.4391C29.5892 29.4132 29.7286 29.3852 29.7457 29.3744C29.7629 29.3657 29.8165 29.3528 29.8637 29.3441C29.9108 29.3355 29.9838 29.3161 30.0245 29.301C30.0653 29.2859 30.1575 29.2492 30.2282 29.2233C30.299 29.1974 30.3998 29.1542 30.4534 29.1304C30.4911 29.1137 30.5469 29.0874 30.5975 29.0635C30.6189 29.0534 30.6393 29.0438 30.6572 29.0355C30.7151 29.0074 30.803 28.9599 30.8502 28.9318C30.8974 28.9016 30.9703 28.8584 31.011 28.8347C31.0518 28.8109 31.1333 28.757 31.1933 28.7138C31.2512 28.6706 31.3434 28.6015 31.3971 28.5584C31.4507 28.513 31.5987 28.3706 31.7295 28.241C31.8603 28.1115 32.0018 27.9604 32.0447 27.9064C32.0876 27.8525 32.1562 27.7618 32.1991 27.7014C32.242 27.6431 32.2956 27.5589 32.3192 27.5179C32.3428 27.4769 32.3814 27.4142 32.405 27.3776C32.4265 27.3409 32.4844 27.2437 32.5337 27.1617C32.583 27.0796 32.6409 26.9825 32.6624 26.9458C32.686 26.9091 32.7181 26.853 32.7374 26.8163C32.7546 26.7796 32.8082 26.6824 32.8532 26.6004C32.9004 26.5184 33.0398 26.2442 33.1621 25.996C33.2865 25.7477 33.428 25.4584 33.4752 25.3548C33.5245 25.249 33.5631 25.1584 33.5631 25.1497C33.5631 25.139 33.5846 25.0893 33.6081 25.0353C33.6317 24.9814 33.6661 24.9123 33.6832 24.8799C33.7004 24.8454 33.7132 24.8065 33.7132 24.7936C33.7132 24.7784 33.7325 24.7288 33.7561 24.6856C33.7797 24.6403 33.799 24.5906 33.799 24.5777C33.799 24.5626 33.8183 24.5108 33.8398 24.4633C33.8612 24.4158 33.8977 24.323 33.9213 24.2582C33.9411 24.2036 33.9656 24.1337 33.9805 24.0911L33.9877 24.0704C33.9943 24.0533 34.0022 24.0313 34.0102 24.0088C34.0204 23.9801 34.0308 23.9506 34.0392 23.9301C34.0437 23.9166 34.05 23.8981 34.0571 23.8772C34.0704 23.838 34.0867 23.7903 34.0993 23.7509C34.1112 23.7186 34.125 23.6783 34.1376 23.6418C34.1477 23.6125 34.1569 23.5857 34.1636 23.5674C34.1765 23.5264 34.1979 23.453 34.2086 23.4055C34.2194 23.358 34.243 23.2911 34.258 23.2544C34.2751 23.2177 34.2944 23.1464 34.3051 23.0925C34.3137 23.0385 34.333 22.9716 34.3502 22.9414C34.3652 22.9111 34.3781 22.868 34.3781 22.8442C34.3781 22.8205 34.3974 22.7384 34.4188 22.6607C34.4424 22.583 34.481 22.4427 34.5046 22.3477C34.5134 22.3121 34.5229 22.2728 34.5321 22.2347C34.5473 22.1714 34.5617 22.1116 34.5711 22.0779C34.5839 22.0239 34.6054 21.9181 34.6183 21.8404C34.6311 21.7627 34.6547 21.6526 34.6697 21.5922C34.6869 21.5339 34.7083 21.4259 34.7212 21.3547C34.7262 21.3217 34.7339 21.2682 34.7427 21.2074C34.7529 21.1371 34.7645 21.0572 34.7748 20.9877C34.7941 20.8582 34.8241 20.6877 34.8413 20.6099C34.8585 20.5322 34.8713 20.4308 34.8713 20.3833C34.8713 20.3358 34.8863 20.189 34.9035 20.0595C34.9206 19.9299 34.9507 19.5889 34.9678 19.3039C34.985 19.019 35 18.475 35 18.095C35 17.7151 34.985 17.1862 34.9678 16.9185C34.9507 16.6508 34.9271 16.3788 34.9164 16.3141C34.9035 16.2493 34.8842 16.0982 34.8735 15.9795C34.8627 15.8608 34.837 15.6665 34.8177 15.5477C34.7984 15.429 34.7705 15.2693 34.7534 15.1915C34.7362 15.1138 34.7169 15.0081 34.7083 14.9541C34.7019 14.9001 34.6826 14.8095 34.6676 14.749C34.6526 14.6907 34.6311 14.5936 34.6247 14.5331C34.6161 14.4748 34.5947 14.3928 34.5797 14.3561C34.5625 14.3173 34.5496 14.2633 34.5496 14.2374C34.5496 14.2093 34.5325 14.1251 34.5089 14.0474C34.5042 14.0303 34.499 14.0119 34.4938 13.993C34.4751 13.9257 34.4546 13.8521 34.4445 13.81C34.4388 13.7893 34.4309 13.7605 34.4219 13.728C34.4075 13.6755 34.3905 13.6137 34.3759 13.5617C34.3523 13.4775 34.3202 13.3631 34.303 13.3027C34.2858 13.2444 34.2151 13.0242 34.1422 12.8169C34.0692 12.6097 33.9963 12.396 33.9792 12.342C33.962 12.2881 33.9341 12.2147 33.917 12.1801C33.8998 12.1456 33.8419 11.9988 33.7862 11.8563L33.7835 11.8495C33.7287 11.7096 33.6787 11.5819 33.6682 11.5649C33.6596 11.5476 33.6317 11.485 33.606 11.4246C33.5977 11.4057 33.588 11.3838 33.578 11.361C33.5571 11.3134 33.5347 11.2624 33.5202 11.2303C33.4988 11.1828 33.443 11.0619 33.3958 10.9604C33.3486 10.859 33.265 10.6841 33.2093 10.5719C33.1535 10.4596 33.072 10.2999 33.027 10.2157C33.0099 10.1838 32.9891 10.1453 32.9677 10.1057C32.9326 10.0407 32.8957 9.9725 32.8704 9.92425C32.8318 9.84654 32.7718 9.74076 32.7374 9.68679C32.7031 9.63283 32.6517 9.54648 32.6238 9.49251C32.5959 9.43854 32.538 9.33924 32.493 9.27016C32.4501 9.19892 32.3836 9.09746 32.345 9.04349C32.3064 8.98737 32.2613 8.91181 32.2442 8.87727C32.227 8.84273 32.1541 8.73048 32.0855 8.62902C32.0147 8.52756 31.9139 8.38292 31.8603 8.30521C31.8067 8.2275 31.7338 8.12172 31.6973 8.06775C31.6608 8.01378 31.5751 7.89721 31.5086 7.8087C31.4421 7.7202 31.337 7.58636 31.2791 7.51512C31.2191 7.44172 31.1419 7.3381 31.1032 7.28629C31.0668 7.23664 31.0132 7.16972 30.9853 7.1395C30.9574 7.10928 30.8909 7.03156 30.8395 6.9668C30.788 6.90204 30.6722 6.76604 30.5821 6.66674C30.4942 6.56528 30.3376 6.39474 30.2368 6.28896C30.136 6.18102 30.0202 6.05366 29.9795 6.00833C29.9387 5.96083 29.8487 5.86369 29.7757 5.79245C29.705 5.71906 29.6085 5.62839 29.5613 5.58738C29.5162 5.54636 29.349 5.39093 29.1903 5.24198C29.1457 5.19959 29.102 5.15807 29.0619 5.11992C28.9609 5.02401 28.8824 4.94934 28.8686 4.93544C28.8493 4.91817 28.7528 4.83614 28.652 4.75411C28.5512 4.67208 28.4589 4.59436 28.4482 4.58141C28.4375 4.5663 28.2852 4.44325 28.1115 4.30941C28.0192 4.23712 27.9172 4.15812 27.8299 4.09056C27.753 4.03103 27.6876 3.98039 27.6504 3.95106C27.5711 3.89062 27.466 3.8129 27.4188 3.78052L27.4086 3.77353C27.3575 3.73844 27.259 3.67086 27.1829 3.61646C27.1376 3.58527 27.0725 3.54075 27.0073 3.49623C26.9552 3.46064 26.9031 3.42504 26.8612 3.39627L26.8221 3.37031C26.7358 3.31307 26.6396 3.24916 26.5931 3.21925C26.5656 3.20153 26.5364 3.18323 26.5119 3.16787C26.4886 3.1533 26.4696 3.14137 26.4602 3.13506C26.4507 3.12976 26.4267 3.11506 26.3953 3.09584C26.3628 3.07597 26.3225 3.05127 26.2822 3.02713C26.2028 2.97964 26.1063 2.92135 26.0677 2.8976C26.0291 2.87386 25.9498 2.82637 25.8919 2.79398C25.8361 2.7616 25.7739 2.72491 25.7567 2.71195C25.7396 2.70116 25.686 2.6731 25.6388 2.64935C25.5916 2.6256 25.4844 2.56732 25.4029 2.52199C25.3214 2.47449 25.1284 2.37519 24.974 2.29748C24.8195 2.21976 24.618 2.12046 24.5236 2.07729C24.4727 2.05284 24.4124 2.02524 24.3586 2.00061C24.3127 1.97957 24.2715 1.96069 24.2448 1.94776C24.2062 1.93109 24.1551 1.90817 24.1093 1.88761C24.0839 1.87622 24.0602 1.86556 24.0411 1.8571C23.9874 1.83119 23.8094 1.7578 23.6443 1.69088C23.4792 1.62396 23.3333 1.56999 23.3226 1.56999C23.3119 1.56999 23.2626 1.55056 23.2154 1.52681C23.1682 1.50307 23.1167 1.4858 23.1017 1.48364C23.0888 1.48364 23.0438 1.47069 23.0074 1.45342C22.9688 1.4383 22.883 1.40592 22.8186 1.38218C22.7543 1.35627 22.6149 1.31094 22.5077 1.27856C22.4004 1.24834 22.2911 1.21164 22.261 1.20085C22.231 1.19005 22.1538 1.16631 22.0895 1.14904C22.0541 1.13955 22 1.12485 21.9438 1.10959C21.8977 1.09707 21.8503 1.08418 21.8107 1.07348C21.7227 1.04758 21.5769 1.00872 21.489 0.987131C21.4606 0.980174 21.4298 0.972545 21.3996 0.965038C21.3358 0.94925 21.2743 0.934002 21.2423 0.926687C21.1952 0.913735 21.0643 0.885671 20.9528 0.861925C20.8413 0.83602 20.6762 0.801481 20.5882 0.784211C20.5003 0.764782 20.3502 0.741036 20.2558 0.728084C20.1615 0.715132 20.0735 0.697862 20.0628 0.691386C20.0521 0.682751 19.9298 0.665481 19.7947 0.65037C19.6596 0.635259 19.4709 0.611513 19.3765 0.598561C19.2822 0.587767 19.027 0.561862 18.8082 0.542434ZM16.0309 3.60784C16.2197 3.58842 16.5092 3.56683 16.6743 3.55819C16.8394 3.55172 17.2984 3.5474 17.693 3.54956C18.0876 3.55388 18.4972 3.56467 18.6045 3.57546C18.7117 3.58842 18.909 3.60784 19.0441 3.6208C19.1792 3.63375 19.3679 3.65965 19.4623 3.67692C19.5567 3.69419 19.7025 3.71794 19.784 3.72873C19.8655 3.73953 19.992 3.76327 20.0628 3.7827C20.1336 3.79997 20.2172 3.81508 20.2515 3.81508C20.2837 3.81508 20.3352 3.82588 20.3695 3.83883C20.4016 3.85178 20.4896 3.87553 20.5668 3.89064C20.644 3.90791 20.7491 3.93165 20.8027 3.94676C20.8563 3.95972 20.9678 3.98994 21.0493 4.01368C21.0761 4.0215 21.1083 4.03072 21.1422 4.04042C21.2111 4.06019 21.287 4.08195 21.3388 4.09787C21.416 4.11946 21.6091 4.18206 21.7678 4.23603C21.8628 4.26707 21.9633 4.3012 22.0401 4.3273C22.0915 4.34477 22.1323 4.35863 22.1538 4.36556C22.1955 4.38066 22.2825 4.41403 22.3696 4.44741C22.3945 4.45697 22.4194 4.46652 22.4433 4.47565C22.5505 4.51883 22.7285 4.59222 22.8401 4.63971C22.9516 4.68505 23.1124 4.75629 23.1939 4.79514C23.2528 4.82478 23.3777 4.88596 23.5072 4.94939C23.557 4.97376 23.6074 4.99845 23.655 5.02181C23.8266 5.106 24.0346 5.21394 24.1161 5.26143C24.1976 5.30892 24.2941 5.36073 24.3306 5.38016C24.367 5.39743 24.4335 5.43628 24.4807 5.46651C24.5279 5.49673 24.5879 5.53127 24.6158 5.54206C24.6415 5.55501 24.7123 5.59819 24.7702 5.6392C24.8303 5.68022 24.8817 5.71476 24.8882 5.71476C24.8946 5.71476 24.9246 5.73203 24.9589 5.75578C24.969 5.76255 24.9908 5.7772 25.0206 5.79732C25.0858 5.84129 25.1897 5.91136 25.2956 5.98244C25.45 6.08606 25.6323 6.21127 25.7031 6.26524C25.742 6.29374 25.7888 6.32746 25.8308 6.35779C25.8651 6.3826 25.8963 6.40512 25.9176 6.42066C25.9648 6.45304 26.1428 6.5912 26.3143 6.7272C26.4859 6.8632 26.6403 6.98841 26.6596 7.00784C26.6789 7.02727 26.7411 7.08123 26.7969 7.12873C26.8548 7.17622 26.9513 7.25825 27.0092 7.31222C27.0692 7.36619 27.1915 7.47628 27.2794 7.56047C27.3673 7.64466 27.5475 7.82384 27.6826 7.95984C27.8177 8.09583 28.015 8.30523 28.1222 8.42396C28.2295 8.54269 28.341 8.67006 28.371 8.7046C28.401 8.73914 28.4761 8.82764 28.534 8.89888C28.546 8.91317 28.5583 8.92772 28.5703 8.94205C28.6182 8.99913 28.6631 9.0526 28.682 9.07158C28.7034 9.09532 28.7613 9.16872 28.8106 9.23348C28.8578 9.29825 28.9157 9.37164 28.9393 9.39539C28.9608 9.41913 28.9929 9.46231 29.0122 9.49253C29.0315 9.52275 29.0959 9.6091 29.1559 9.68682C29.216 9.76453 29.2932 9.87031 29.3275 9.92428C29.364 9.97824 29.3961 10.0257 29.4026 10.0322C29.409 10.0387 29.4926 10.1596 29.5849 10.3021C29.5987 10.323 29.6125 10.3437 29.6259 10.3639C29.7034 10.4809 29.7687 10.5794 29.7779 10.5978C29.7831 10.6073 29.7977 10.6315 29.8168 10.6631C29.8366 10.6957 29.8611 10.7364 29.8851 10.777C29.9165 10.8302 29.9537 10.892 29.9826 10.9401C29.9971 10.9642 30.0095 10.9849 30.0181 10.9993C30.0459 11.0425 30.0824 11.1094 30.0996 11.144C30.1061 11.1556 30.1145 11.1712 30.124 11.1886C30.1425 11.2227 30.1647 11.2636 30.1832 11.2951C30.2111 11.3426 30.2668 11.444 30.3054 11.5217C30.344 11.5994 30.3805 11.6664 30.3891 11.6728C30.3955 11.6793 30.4684 11.8196 30.5478 11.9859C30.6271 12.1521 30.7065 12.3183 30.7215 12.3528C30.7365 12.3874 30.7751 12.4759 30.8073 12.5471C30.8394 12.6184 30.878 12.7069 30.8931 12.7414C30.9081 12.776 30.9402 12.8493 30.966 12.9033C30.9896 12.9573 31.011 13.0156 31.011 13.0328C31.011 13.0501 31.0239 13.0847 31.041 13.1084C31.056 13.1321 31.0796 13.1861 31.0925 13.2271C31.1054 13.2681 31.1397 13.3696 31.1719 13.4538L31.1774 13.4692C31.2062 13.55 31.239 13.6419 31.2491 13.6805C31.2598 13.7215 31.2791 13.7754 31.292 13.7992C31.3027 13.8229 31.3263 13.892 31.3413 13.9503C31.3584 14.0107 31.3928 14.1252 31.4185 14.2093C31.4303 14.2514 31.4464 14.3059 31.4624 14.3604C31.4785 14.4149 31.4946 14.4695 31.5064 14.5116C31.53 14.5958 31.5643 14.7274 31.5815 14.8095C31.5965 14.8893 31.6201 14.9714 31.6308 14.993C31.6415 15.0124 31.6565 15.0793 31.663 15.1376C31.6716 15.198 31.693 15.2952 31.708 15.3535C31.7252 15.4139 31.7445 15.5154 31.7509 15.5801C31.7595 15.6449 31.7788 15.7485 31.7938 15.8068C31.811 15.8672 31.8324 15.9968 31.8453 16.0982C31.8581 16.1997 31.8774 16.3594 31.8882 16.4544C31.901 16.5494 31.9203 16.7351 31.9332 16.8646C31.9461 16.9941 31.9654 17.3114 31.9782 17.5662C31.9911 17.8209 31.9954 18.2203 31.989 18.4512C31.9804 18.6822 31.9611 19.0427 31.9439 19.25C31.9246 19.4572 31.8924 19.7918 31.8667 19.9947C31.8431 20.1977 31.8088 20.4243 31.7938 20.502C31.7766 20.5797 31.753 20.7222 31.7402 20.8215C31.7295 20.9187 31.7102 21.0158 31.6994 21.0374C31.6887 21.0568 31.6737 21.1237 31.6651 21.182C31.6565 21.2425 31.6372 21.3396 31.6222 21.3979C31.6051 21.4583 31.5772 21.5684 31.5579 21.6462C31.5364 21.7239 31.5086 21.8404 31.4935 21.9052C31.4862 21.933 31.4777 21.9667 31.4691 22.0004C31.4577 22.0453 31.4464 22.0902 31.4378 22.1211C31.4249 22.175 31.3949 22.2679 31.3756 22.3262C31.3542 22.3866 31.3155 22.5075 31.2898 22.596C31.2619 22.6845 31.2212 22.8119 31.1976 22.8766C31.1848 22.9118 31.17 22.9541 31.1569 22.9919C31.1458 23.0236 31.1358 23.0522 31.129 23.0709C31.1274 23.0751 31.1255 23.0803 31.1233 23.0865C31.1034 23.1409 31.0572 23.2676 31.011 23.3839C30.9617 23.5135 30.8823 23.7142 30.8352 23.8265C30.7858 23.9387 30.7108 24.1093 30.6679 24.2042C30.6399 24.2633 30.6136 24.3214 30.5956 24.3612C30.5846 24.3854 30.5768 24.4028 30.5735 24.4093C30.5671 24.4266 30.5521 24.4568 30.5392 24.4741C30.5285 24.4914 30.5092 24.5302 30.4963 24.5604C30.4856 24.5907 30.4663 24.6295 30.4556 24.6468C30.4448 24.6641 30.4084 24.7353 30.3762 24.8022C30.3419 24.8713 30.299 24.9533 30.2818 24.9857C30.2647 25.0202 30.1682 25.1908 30.0674 25.3656C30.0096 25.4671 29.9547 25.5628 29.9163 25.6298C29.8877 25.6797 29.8682 25.7135 29.8636 25.7218C29.8529 25.7413 29.8079 25.8125 29.7628 25.8773C29.72 25.942 29.6342 26.0456 29.5698 26.1061C29.5076 26.1665 29.4154 26.2421 29.3661 26.2723C29.3146 26.3047 29.2224 26.35 29.1624 26.3738C29.1002 26.3975 28.9801 26.4277 28.8986 26.4407C28.7978 26.4536 28.6884 26.4536 28.5619 26.4385C28.4568 26.4277 28.356 26.4083 28.3367 26.3975C28.329 26.3936 28.3144 26.3864 28.2957 26.3772C28.2622 26.3607 28.2156 26.3376 28.1716 26.3155C28.0922 26.2788 27.9871 26.1968 27.8928 26.1039C27.807 26.0197 27.659 25.8298 27.5539 25.6722C27.451 25.5168 27.3673 25.3721 27.3673 25.3484C27.3673 25.3246 27.4788 25.1347 27.6161 24.9274C27.7534 24.7202 27.8842 24.5151 27.9099 24.4741C27.9238 24.4519 27.9396 24.4259 27.9536 24.403C27.9654 24.3835 27.9759 24.3663 27.9828 24.3554C27.9978 24.3316 28.0236 24.2841 28.0429 24.2474C28.06 24.2107 28.0986 24.1438 28.1265 24.0963C28.1544 24.0488 28.193 23.9819 28.2123 23.9452C28.2245 23.9192 28.2507 23.8703 28.2771 23.821C28.288 23.8008 28.2988 23.7805 28.3088 23.7617C28.3453 23.6969 28.3731 23.6322 28.3731 23.6214C28.371 23.6106 28.386 23.5847 28.4053 23.5674C28.4225 23.5502 28.4439 23.5113 28.4482 23.4811C28.4525 23.4509 28.4739 23.412 28.4911 23.3947C28.5104 23.3775 28.5297 23.3343 28.534 23.2976C28.5404 23.2609 28.5597 23.2177 28.5769 23.2004C28.5962 23.1832 28.6112 23.1573 28.6112 23.1465C28.6091 23.1357 28.6262 23.086 28.6498 23.0385C28.6712 22.991 28.7099 22.8982 28.7356 22.8335C28.7467 22.8076 28.7599 22.777 28.773 22.7464C28.7929 22.7002 28.8128 22.6539 28.8257 22.6241C28.8471 22.5723 28.8664 22.5204 28.8664 22.5096C28.8664 22.4989 28.8814 22.4557 28.8986 22.419C28.9157 22.3801 28.9436 22.3046 28.9629 22.2506C28.9822 22.1966 29.0122 22.1103 29.0294 22.0563C29.0444 22.0023 29.0723 21.9117 29.0916 21.8512C29.1003 21.8249 29.1099 21.7947 29.119 21.766C29.13 21.7311 29.1403 21.6987 29.1473 21.6785C29.1602 21.6418 29.1838 21.5663 29.1988 21.5058C29.2093 21.4702 29.2222 21.4216 29.2341 21.377C29.2416 21.3486 29.2487 21.3217 29.2546 21.3008C29.2611 21.2736 29.2719 21.2332 29.2835 21.1899C29.295 21.1473 29.3072 21.1018 29.3168 21.0633C29.3382 20.9856 29.3661 20.869 29.379 20.8043C29.3918 20.7395 29.4219 20.5841 29.4454 20.4589C29.469 20.3337 29.4926 20.2128 29.4991 20.189C29.505 20.1671 29.5164 20.0826 29.5283 19.995L29.5312 19.9731C29.542 19.8782 29.5613 19.7573 29.572 19.7033C29.5827 19.6493 29.5977 19.4939 29.6063 19.3579C29.6149 19.2219 29.632 19.0168 29.6449 18.9046C29.6578 18.7923 29.6685 18.4426 29.6685 18.1274C29.6685 17.8123 29.6578 17.4539 29.6449 17.3287C29.632 17.2035 29.6127 16.9898 29.6063 16.8538C29.5977 16.7178 29.5849 16.5861 29.5741 16.5624C29.5655 16.5386 29.5462 16.4069 29.5312 16.2709C29.5162 16.1349 29.4905 15.9838 29.4733 15.9363C29.4583 15.8888 29.4454 15.8133 29.4454 15.7701C29.4454 15.7248 29.4261 15.6276 29.4026 15.5542C29.379 15.4787 29.3597 15.3945 29.3597 15.3643C29.3597 15.334 29.3404 15.2542 29.3168 15.1872C29.2932 15.1182 29.2739 15.0405 29.2739 15.0146C29.2739 14.9865 29.2546 14.9023 29.2288 14.8246C29.2031 14.7469 29.1731 14.654 29.1624 14.6195C29.1513 14.5898 29.1339 14.5283 29.1184 14.4732C29.1158 14.4642 29.1133 14.4553 29.1109 14.4468C29.0959 14.3885 29.068 14.2914 29.0487 14.2309C29.0294 14.1726 28.9994 14.0971 28.9822 14.0647C28.9651 14.0302 28.9522 13.987 28.9522 13.9676C28.9522 13.946 28.9329 13.892 28.9093 13.8488C28.8857 13.8035 28.8664 13.7517 28.8664 13.7344C28.8664 13.7172 28.8471 13.661 28.8257 13.6114C28.8021 13.5596 28.7442 13.4214 28.6948 13.3027C28.6455 13.184 28.5962 13.0717 28.5855 13.0544C28.5747 13.0372 28.5554 12.9983 28.5447 12.9681C28.5318 12.9379 28.5125 12.899 28.5018 12.8817C28.489 12.8645 28.4697 12.8256 28.4589 12.7954C28.4461 12.7652 28.4268 12.7263 28.416 12.709C28.4032 12.6918 28.3839 12.6529 28.3731 12.6227C28.3603 12.5925 28.3217 12.5104 28.2852 12.4392C28.2488 12.368 28.1544 12.1974 28.0772 12.0614C28 11.9254 27.9035 11.7592 27.8627 11.6944C27.8413 11.662 27.8139 11.6189 27.7866 11.5757C27.7593 11.5325 27.7319 11.4894 27.7105 11.457C27.6676 11.3922 27.629 11.3274 27.6225 11.3145C27.6161 11.3015 27.5432 11.1958 27.4617 11.0814C27.3802 10.9648 27.1958 10.723 27.0564 10.5438C26.917 10.3625 26.7861 10.2006 26.7668 10.1812C26.7475 10.1617 26.6939 10.0991 26.6467 10.043C26.5996 9.98688 26.4988 9.87247 26.4237 9.78827C26.3486 9.70193 26.1792 9.52707 26.0484 9.39755C25.9176 9.26802 25.6817 9.04999 25.5251 8.91183C25.3664 8.77367 25.1841 8.62041 25.1176 8.5686C25.049 8.51679 24.9718 8.45418 24.9439 8.42828C24.9139 8.40237 24.8474 8.34841 24.7938 8.30955C24.738 8.27069 24.6716 8.2232 24.6415 8.20161C24.6115 8.18218 24.5836 8.1606 24.5772 8.15412C24.5708 8.14764 24.4228 8.04402 24.2448 7.92745C24.0689 7.80872 23.9081 7.70295 23.8866 7.68999C23.8769 7.68349 23.8429 7.66338 23.7965 7.63595C23.7505 7.60875 23.6923 7.57435 23.6336 7.53888C23.5135 7.46765 23.344 7.3705 23.2561 7.32301L23.2349 7.31153C23.1497 7.26555 23.0435 7.20822 22.9902 7.17838C22.9301 7.14384 22.8701 7.11793 22.8572 7.11793C22.8422 7.12009 22.8143 7.10498 22.7972 7.08555C22.78 7.06612 22.7371 7.04669 22.7007 7.04238C22.6642 7.0359 22.6213 7.01647 22.6042 6.9992C22.587 6.97977 22.5613 6.96466 22.5505 6.96466C22.5398 6.96682 22.4883 6.94739 22.439 6.92365C22.3875 6.8999 22.306 6.8632 22.2567 6.84162C22.2205 6.8249 22.1662 6.80177 22.1163 6.7805C22.0953 6.77156 22.0751 6.76294 22.0573 6.75527C21.9994 6.73152 21.8943 6.6905 21.8278 6.66676C21.798 6.6555 21.7609 6.64221 21.7235 6.62882C21.6749 6.61141 21.6259 6.59384 21.5919 6.58041C21.5297 6.55882 21.4439 6.5286 21.4032 6.51349C21.3925 6.51011 21.3794 6.50585 21.3649 6.50113C21.3237 6.48775 21.2712 6.47069 21.2316 6.45952C21.178 6.44441 21.1072 6.42066 21.0708 6.40771C21.0487 6.40119 21.0126 6.38917 20.9743 6.37638C20.9491 6.36799 20.923 6.35928 20.8992 6.35158C20.8413 6.33216 20.7491 6.30841 20.6954 6.29762C20.6418 6.28682 20.5518 6.26308 20.4917 6.24581C20.4338 6.22854 20.3373 6.20263 20.2773 6.18752C20.2691 6.1857 20.2599 6.18363 20.2499 6.18137C20.1887 6.16755 20.097 6.14685 20.0306 6.13571C19.9534 6.1206 19.8054 6.09254 19.6982 6.07311C19.639 6.06238 19.572 6.04968 19.5137 6.03864C19.4664 6.02968 19.4249 6.02182 19.398 6.01698C19.3401 6.00403 19.1899 5.9846 19.0655 5.97381C18.9412 5.96086 18.7439 5.93711 18.6259 5.91984C18.4651 5.89609 18.1863 5.88746 17.5 5.88746C16.8137 5.88746 16.5349 5.89609 16.3741 5.91984C16.2561 5.93711 16.0588 5.96086 15.9344 5.97381C15.81 5.9846 15.6556 6.00619 15.5913 6.01698C15.5374 6.02783 15.4338 6.04778 15.3423 6.06539C15.3246 6.0688 15.3074 6.07212 15.291 6.07527C15.1902 6.09254 15.0466 6.1206 14.9693 6.13571C14.9114 6.14543 14.8355 6.16242 14.7757 6.17578C14.7558 6.18023 14.7377 6.18428 14.7227 6.18752C14.6648 6.20263 14.5683 6.22854 14.5083 6.24581C14.4504 6.26308 14.3581 6.28682 14.3045 6.29762C14.2509 6.30841 14.1608 6.33216 14.1008 6.35158C14.0429 6.37101 13.9635 6.39692 13.9292 6.40771C13.8949 6.42066 13.822 6.44441 13.7684 6.45952C13.7287 6.47069 13.6762 6.48775 13.6351 6.50112C13.6206 6.50584 13.6074 6.51011 13.5968 6.51349C13.5709 6.5231 13.5267 6.53884 13.4825 6.55457C13.4573 6.56356 13.4321 6.57256 13.4102 6.58041C13.3819 6.59123 13.3442 6.60474 13.3053 6.61869C13.2588 6.63536 13.2105 6.65266 13.1743 6.66676C13.1107 6.68876 13.0177 6.72557 12.9566 6.74975L12.9427 6.75527C12.9196 6.76558 12.8915 6.77761 12.8628 6.78985C12.8195 6.80835 12.7751 6.82733 12.7454 6.84162C12.6939 6.8632 12.6124 6.8999 12.5631 6.92365C12.5116 6.94739 12.4602 6.96682 12.4494 6.96466C12.4387 6.96466 12.413 6.97977 12.3958 6.9992C12.3787 7.01647 12.3336 7.0359 12.2993 7.04238C12.265 7.04669 12.22 7.06612 12.2028 7.08555C12.1856 7.10498 12.1578 7.12009 12.1449 7.11793C12.1299 7.11793 12.0698 7.14384 12.0098 7.17838C11.9564 7.20822 11.8502 7.26557 11.7651 7.31156L11.7439 7.32301C11.6559 7.3705 11.4865 7.46765 11.3664 7.53888C11.3077 7.57435 11.2495 7.60876 11.2035 7.63596C11.1571 7.66338 11.123 7.68349 11.1133 7.68999C11.1067 7.69444 11.0935 7.70269 11.0762 7.71354C11.043 7.73431 10.9947 7.76457 10.9482 7.79577C10.8774 7.8411 10.7959 7.89507 10.7659 7.91666C10.7513 7.92613 10.7234 7.94535 10.6897 7.96857C10.6543 7.99297 10.6125 8.02179 10.5729 8.04834C10.4957 8.10015 10.4292 8.14764 10.4228 8.15412C10.4163 8.1606 10.3885 8.18218 10.3584 8.20161C10.3284 8.2232 10.2619 8.27069 10.2062 8.30955C10.1526 8.34841 10.0861 8.40237 10.056 8.42828C10.0282 8.45418 9.95096 8.51679 9.88234 8.5686C9.81585 8.62041 9.63356 8.77367 9.47486 8.91183C9.3183 9.04999 9.0824 9.26802 8.95158 9.39755C8.82076 9.52707 8.65133 9.70193 8.57627 9.78827C8.50121 9.87247 8.40041 9.98688 8.35323 10.043C8.30605 10.0991 8.25243 10.1617 8.23313 10.1812C8.21383 10.2006 8.08301 10.3625 7.94361 10.5438C7.80421 10.723 7.62192 10.9648 7.53828 11.0814C7.45464 11.1958 7.38387 11.3015 7.37743 11.3145C7.371 11.3274 7.32811 11.3965 7.28307 11.4678C7.23589 11.539 7.16726 11.6469 7.1308 11.7052C7.0922 11.7657 6.99998 11.9254 6.92278 12.0614C6.84557 12.1974 6.75121 12.368 6.71475 12.4392C6.67829 12.5104 6.63969 12.5925 6.62682 12.6227C6.6161 12.6529 6.5968 12.6918 6.58393 12.709C6.57321 12.7263 6.5539 12.7652 6.54104 12.7954C6.53031 12.8256 6.51101 12.8645 6.49814 12.8817C6.48742 12.899 6.46812 12.9379 6.45525 12.9681C6.44453 12.9983 6.42523 13.0372 6.41451 13.0544C6.40378 13.0717 6.35446 13.184 6.30513 13.3027C6.2558 13.4214 6.1979 13.5596 6.17431 13.6114C6.15286 13.661 6.13356 13.7172 6.13356 13.7344C6.13356 13.7517 6.11426 13.8035 6.09067 13.8488C6.06708 13.892 6.04778 13.946 6.04778 13.9676C6.04778 13.987 6.03491 14.0302 6.01775 14.0647C6.0006 14.0971 5.97057 14.1726 5.95127 14.2309C5.93197 14.2914 5.90409 14.3885 5.88908 14.4468C5.87192 14.5073 5.84833 14.585 5.83761 14.6195C5.82474 14.654 5.79471 14.7469 5.77112 14.8246C5.74539 14.9023 5.72609 14.9865 5.72609 15.0146C5.72609 15.0405 5.70678 15.1182 5.68319 15.1872C5.6596 15.2542 5.6403 15.334 5.6403 15.3643C5.6403 15.3945 5.621 15.4787 5.59741 15.5542C5.57382 15.6276 5.55452 15.7248 5.55452 15.7701C5.55452 15.8133 5.54165 15.8888 5.52664 15.9363C5.50948 15.9838 5.48375 16.1349 5.46873 16.2709C5.45372 16.4069 5.43442 16.5386 5.42584 16.5624C5.41512 16.5861 5.40225 16.7178 5.39367 16.8538C5.38724 16.9898 5.36794 17.2035 5.35507 17.3287C5.3422 17.4539 5.33148 17.8123 5.33148 18.1274C5.33148 18.4426 5.3422 18.7923 5.35507 18.9046C5.36794 19.0168 5.38509 19.2219 5.39367 19.3579C5.40225 19.4939 5.41726 19.6493 5.42799 19.7033C5.43871 19.7573 5.45801 19.8825 5.47088 19.9839C5.4816 20.0854 5.5009 20.1977 5.51163 20.2322C5.52235 20.2667 5.53736 20.3466 5.54379 20.4049C5.55237 20.4653 5.57596 20.5905 5.59741 20.6855C5.60253 20.7082 5.60801 20.7327 5.6136 20.7577C5.63143 20.8374 5.65032 20.9218 5.66175 20.9662C5.67391 21.0233 5.69565 21.117 5.71067 21.1818L5.71322 21.1928C5.71642 21.2049 5.71999 21.2185 5.7238 21.233C5.74047 21.2963 5.76185 21.3776 5.77756 21.4303C5.79686 21.495 5.83332 21.6181 5.85691 21.7001C5.8805 21.7822 5.91052 21.875 5.92339 21.9052C5.93626 21.9354 5.9577 22.0023 5.97272 22.0563C5.98773 22.1103 6.01775 22.1966 6.03705 22.2506C6.05636 22.3046 6.08424 22.3801 6.10139 22.419C6.11855 22.4557 6.13356 22.4989 6.13356 22.5096C6.13356 22.5204 6.15286 22.5723 6.17431 22.6241C6.18719 22.6539 6.20703 22.7001 6.22687 22.7462C6.24006 22.7769 6.25325 22.8076 6.26438 22.8335C6.29012 22.8982 6.32872 22.991 6.35017 23.0385C6.37376 23.086 6.39091 23.1357 6.38877 23.1465C6.38877 23.1573 6.40378 23.1832 6.42308 23.2004C6.44024 23.2177 6.45954 23.2609 6.46598 23.2976C6.47026 23.3343 6.48957 23.3775 6.50887 23.3947C6.52602 23.412 6.54747 23.4509 6.55176 23.4811C6.55605 23.5113 6.5775 23.5502 6.59465 23.5674C6.61395 23.5847 6.62897 23.6106 6.62682 23.6214C6.62682 23.6322 6.6547 23.6969 6.69116 23.7617C6.70113 23.7805 6.712 23.8008 6.72283 23.821C6.74929 23.8703 6.77549 23.9192 6.78767 23.9452C6.80697 23.9819 6.84557 24.0488 6.87345 24.0963C6.90133 24.1438 6.93993 24.2107 6.95709 24.2474C6.97639 24.2841 7.00213 24.3316 7.01714 24.3554C7.02404 24.3663 7.03456 24.3836 7.04641 24.403C7.06035 24.426 7.07615 24.4519 7.09006 24.4741C7.11579 24.5151 7.24661 24.7202 7.38387 24.9274C7.52112 25.1347 7.63264 25.3246 7.63264 25.3484C7.63264 25.3721 7.549 25.5168 7.44606 25.6722C7.34098 25.8298 7.193 26.0197 7.10721 26.1039C7.01285 26.1968 6.90776 26.2788 6.82841 26.3155C6.80371 26.3279 6.77818 26.3406 6.75471 26.3523C6.71298 26.3731 6.67778 26.3906 6.66542 26.3975C6.64398 26.4083 6.54747 26.4256 6.45096 26.4385C6.35231 26.4493 6.21077 26.4536 6.13356 26.445C6.05636 26.4385 5.93411 26.4083 5.8612 26.3802C5.78614 26.3543 5.68534 26.3047 5.63601 26.2723C5.58454 26.2421 5.49232 26.1665 5.43013 26.1061C5.36579 26.0456 5.28001 25.942 5.23712 25.8773C5.19208 25.8125 5.14704 25.7413 5.13632 25.7218C5.1256 25.7024 5.02266 25.5232 4.90685 25.3225C4.79318 25.1239 4.67094 24.9015 4.63663 24.8303C4.60017 24.759 4.56585 24.6856 4.55942 24.6684C4.55299 24.6511 4.53797 24.6209 4.52511 24.6036C4.51438 24.5863 4.49508 24.5475 4.48221 24.5173C4.47149 24.487 4.45219 24.4482 4.44147 24.4309C4.42895 24.4141 4.38598 24.3217 4.34021 24.2233L4.33638 24.215C4.29134 24.1136 4.21414 23.9387 4.16481 23.8265C4.11763 23.7142 4.05758 23.5631 4.03185 23.4919C4.00611 23.4206 3.9718 23.3343 3.95678 23.2976C3.94177 23.2609 3.9096 23.1789 3.88601 23.1141C3.86242 23.0493 3.83025 22.9543 3.81953 22.9047C3.80666 22.8529 3.78951 22.8076 3.78093 22.8032C3.7702 22.7989 3.75734 22.7557 3.74876 22.7061C3.73803 22.6586 3.71873 22.5852 3.70158 22.5485C3.68656 22.5096 3.65225 22.406 3.62652 22.3218C3.60705 22.2506 3.57592 22.1456 3.55237 22.0661C3.54737 22.0493 3.54272 22.0336 3.53859 22.0196C3.53184 21.9938 3.5234 21.962 3.51426 21.9276C3.49434 21.8527 3.47112 21.7652 3.45495 21.7001C3.43136 21.6051 3.39704 21.4648 3.37989 21.3871C3.36273 21.3094 3.32841 21.154 3.30482 21.0417C3.28123 20.9295 3.2555 20.7935 3.24906 20.7395C3.24263 20.6855 3.22333 20.5797 3.20617 20.502C3.18902 20.4243 3.15685 20.1977 3.13326 19.9947C3.10752 19.7918 3.07321 19.4486 3.05176 19.2284C3.02603 18.9499 3.0153 18.6153 3.0153 18.1166C3.0153 17.6115 3.02603 17.2834 3.05391 16.9833C3.07321 16.7523 3.10109 16.489 3.11181 16.4005C3.12253 16.3119 3.14183 16.1522 3.15256 16.0443C3.16542 15.9363 3.18902 15.7874 3.20617 15.7097C3.22547 15.6319 3.24692 15.5067 3.25979 15.429C3.27051 15.3513 3.29839 15.2024 3.32198 15.0944C3.34343 14.9865 3.37345 14.8526 3.38846 14.7922C3.39882 14.7453 3.42168 14.6536 3.4425 14.5701C3.44755 14.5499 3.45249 14.5301 3.45709 14.5116C3.48068 14.4166 3.51714 14.2806 3.54073 14.2093C3.56218 14.1381 3.58148 14.0604 3.58148 14.0366C3.58148 14.0129 3.59649 13.9633 3.61365 13.9287C3.63295 13.8942 3.65225 13.8294 3.66083 13.7884C3.66726 13.7474 3.68656 13.6869 3.70158 13.6546C3.71873 13.62 3.74018 13.5574 3.7509 13.5142C3.75223 13.5095 3.75368 13.5044 3.75523 13.499C3.76861 13.4517 3.78936 13.3785 3.80666 13.3243C3.81267 13.3079 3.81918 13.2899 3.82577 13.2717C3.84271 13.2248 3.86019 13.1764 3.871 13.1516C3.88091 13.1288 3.8983 13.0843 3.91638 13.0381C3.92569 13.0143 3.93517 12.9901 3.94392 12.9681C3.96751 12.9033 3.98895 12.8386 3.98895 12.8278C3.98895 12.817 4.00826 12.7673 4.0297 12.7198C4.05115 12.6723 4.0919 12.5795 4.11763 12.5147C4.14337 12.45 4.17768 12.3658 4.19269 12.3313C4.20985 12.2967 4.24845 12.2082 4.27848 12.137C4.3085 12.0657 4.34281 11.9923 4.35568 11.9751C4.36641 11.9578 4.38571 11.9189 4.39857 11.8887C4.40727 11.8642 4.42865 11.8156 4.449 11.7693C4.45375 11.7585 4.45845 11.7478 4.46291 11.7376C4.4865 11.6836 4.51438 11.6254 4.52511 11.6081C4.53583 11.5908 4.57872 11.5088 4.62161 11.4246C4.66236 11.3404 4.73528 11.2066 4.78246 11.1224C4.82964 11.0382 4.88326 10.941 4.90041 10.9065C4.90505 10.8982 4.91068 10.888 4.91691 10.8768C4.93662 10.8412 4.96236 10.7947 4.98191 10.7619C4.99906 10.7331 5.02956 10.6832 5.06006 10.6333C5.07531 10.6084 5.09057 10.5834 5.10415 10.5611C5.11125 10.5494 5.11862 10.5374 5.12603 10.5252C5.16112 10.4678 5.19722 10.4087 5.21138 10.3819C5.22854 10.3495 5.27357 10.2848 5.30789 10.2373C5.34435 10.1898 5.38509 10.1272 5.40011 10.097C5.41297 10.0668 5.45801 9.99551 5.5009 9.93507C5.50962 9.9226 5.52031 9.90726 5.53232 9.89C5.57646 9.82663 5.6386 9.73742 5.68748 9.66955C5.74968 9.58536 5.8612 9.43424 5.93411 9.33494C5.96721 9.29211 5.99947 9.2497 6.02649 9.21418C6.06074 9.16915 6.08657 9.1352 6.09496 9.12555C6.10389 9.11527 6.13939 9.07138 6.18701 9.0125C6.21942 8.97242 6.25746 8.92539 6.29655 8.87729C6.39091 8.75856 6.49171 8.63552 6.52174 8.60529C6.54962 8.57507 6.68044 8.4326 6.80911 8.28796C6.93779 8.14333 7.13724 7.93393 7.24876 7.82168C7.36028 7.70942 7.53399 7.5432 7.63479 7.45038C7.73558 7.35539 7.89 7.21507 7.97792 7.1352C8.06585 7.05749 8.23099 6.91501 8.34251 6.82219C8.45403 6.72936 8.69637 6.53939 8.87866 6.40339C9.06095 6.26739 9.35476 6.06016 9.53277 5.94358C9.70862 5.82701 9.87805 5.71476 9.90807 5.69533C9.9381 5.67374 10.0839 5.58524 10.2362 5.49673C10.3863 5.40822 10.5836 5.29597 10.6758 5.24848C10.7659 5.19882 10.9182 5.11895 11.0125 5.07146C11.0397 5.05842 11.0725 5.04252 11.1081 5.0253C11.1961 4.98267 11.3007 4.93197 11.3771 4.8966C11.4372 4.86879 11.5027 4.83759 11.5569 4.81173C11.5995 4.79142 11.6352 4.77442 11.6559 4.76492C11.7031 4.74117 11.7481 4.72175 11.7589 4.72175C11.7674 4.72175 11.8296 4.69584 11.8961 4.66562C11.9363 4.64792 11.9824 4.62727 12.0205 4.61016C12.0476 4.59804 12.0706 4.58769 12.0848 4.58143C12.1192 4.56632 12.1728 4.54689 12.2028 4.53825C12.2328 4.52962 12.2671 4.51451 12.2779 4.50587C12.2886 4.49724 12.3336 4.47781 12.3744 4.46702C12.4151 4.45406 12.5159 4.41952 12.5996 4.38714L12.6151 4.38154C12.6953 4.35253 12.7865 4.31956 12.8247 4.30943C12.8655 4.29864 12.9341 4.27489 12.9749 4.25978C13.0156 4.24467 13.1228 4.21013 13.2108 4.18206L13.2199 4.17938C13.3057 4.1541 13.4028 4.12549 13.436 4.11299C13.465 4.10204 13.5292 4.08492 13.5872 4.06946C13.5979 4.06663 13.6083 4.06385 13.6182 4.06118C13.6826 4.04607 13.7941 4.018 13.8649 3.99857C13.8876 3.99232 13.914 3.98517 13.9412 3.97778C13.9986 3.9622 14.0601 3.94552 14.1008 3.93381C14.1587 3.91654 14.2552 3.89711 14.3152 3.88848C14.3731 3.87984 14.4461 3.86473 14.4761 3.85394C14.5061 3.84314 14.6112 3.8194 14.712 3.80213L14.7372 3.79781C14.842 3.77985 15.0116 3.75079 15.1302 3.73089C15.2589 3.7093 15.439 3.67908 15.5269 3.66613L15.5373 3.66486C15.6316 3.65327 15.8492 3.62655 16.0309 3.60784ZM16.3955 8.97659C16.477 8.96364 16.7043 8.94421 16.8995 8.93342C16.9495 8.93121 17.0016 8.92885 17.0529 8.92654C17.2016 8.91982 17.3429 8.91344 17.4035 8.91183C17.485 8.91183 17.7616 8.92047 18.0147 8.93126C18.2678 8.94421 18.538 8.9658 18.6152 8.97659C18.6924 8.98955 18.8404 9.01329 18.9476 9.0284C19.0548 9.04352 19.2178 9.07158 19.3122 9.09101C19.4065 9.11044 19.5331 9.14066 19.591 9.15793C19.651 9.1752 19.7154 9.19031 19.7368 9.19031C19.7561 9.19031 19.829 9.20974 19.8977 9.23348C19.9641 9.25723 20.0392 9.27666 20.0628 9.27666C20.0864 9.27882 20.1443 9.29609 20.1915 9.31983C20.2386 9.34358 20.2966 9.36301 20.3201 9.36301C20.3437 9.36301 20.4016 9.38244 20.4488 9.40618C20.496 9.42993 20.5539 9.4472 20.5775 9.44936C20.6011 9.44936 20.6397 9.46231 20.6633 9.47742C20.6869 9.49469 20.7341 9.51412 20.7705 9.52275C20.807 9.53139 20.8777 9.55729 20.9314 9.5832C20.9435 9.58857 20.9568 9.59449 20.9707 9.60064C21.018 9.62168 21.0714 9.64539 21.1029 9.65875C21.1437 9.67818 21.2166 9.71056 21.2638 9.72999C21.311 9.75158 21.4439 9.81634 21.5576 9.87462C21.6734 9.93075 21.7935 9.99335 21.8257 10.0106C21.8362 10.0166 21.8527 10.026 21.8731 10.0375C21.9194 10.0638 21.9855 10.1014 22.0466 10.1358C22.1051 10.1703 22.1694 10.2087 22.2166 10.2368C22.2402 10.2509 22.2596 10.2625 22.2717 10.2697C22.3082 10.2934 22.364 10.328 22.4004 10.3474C22.4369 10.369 22.5098 10.4165 22.5677 10.4575C22.5868 10.4708 22.6099 10.4871 22.6344 10.5044C22.6814 10.5377 22.7334 10.5744 22.7714 10.6C22.8272 10.641 22.9344 10.7208 23.0116 10.7791C23.0888 10.8374 23.2432 10.9626 23.3548 11.0554C23.4663 11.1504 23.6529 11.3145 23.7687 11.4224C23.8845 11.5304 24.0904 11.7398 24.2233 11.8887C24.3563 12.0377 24.5129 12.2168 24.5708 12.2881C24.6265 12.3615 24.6866 12.4327 24.7016 12.45C24.7133 12.4634 24.7405 12.4991 24.7692 12.5366C24.7774 12.5473 24.7857 12.5582 24.7938 12.5687C24.8303 12.6162 24.8946 12.709 24.9375 12.7738C24.9804 12.8386 25.0469 12.9314 25.0855 12.9789C25.1241 13.0264 25.1562 13.0782 25.1562 13.0933C25.1562 13.1062 25.1691 13.1321 25.1841 13.1473C25.197 13.1602 25.2334 13.212 25.2635 13.2595C25.2935 13.307 25.3299 13.3653 25.3428 13.389C25.3557 13.4128 25.4093 13.5056 25.4629 13.5941C25.5144 13.6826 25.6345 13.9158 25.731 14.1122C25.8275 14.3086 25.9047 14.4835 25.9068 14.5008C25.9068 14.518 25.9154 14.5439 25.9261 14.5547C25.9369 14.5655 25.9712 14.6432 26.0012 14.7274C26.0334 14.8116 26.0784 14.9304 26.0999 14.993C26.1177 15.0387 26.1442 15.1092 26.1662 15.1679C26.1733 15.1868 26.1799 15.2044 26.1856 15.2196C26.2092 15.2801 26.2285 15.3492 26.2285 15.3707C26.2285 15.3902 26.2393 15.429 26.2543 15.4571C26.2671 15.483 26.2972 15.578 26.3186 15.6665C26.3359 15.7312 26.36 15.8294 26.3809 15.9147C26.3886 15.946 26.3959 15.9756 26.4023 16.0011C26.4237 16.0961 26.4559 16.2515 26.473 16.3465C26.4902 16.4415 26.5138 16.5732 26.5266 16.6379C26.5395 16.7027 26.5652 16.8775 26.5867 17.0265C26.6167 17.2337 26.6253 17.4755 26.6317 18.0735C26.636 18.6952 26.6317 18.8851 26.606 19.0233C26.5888 19.1183 26.5674 19.2694 26.561 19.3579C26.5545 19.4464 26.5352 19.5867 26.5181 19.6709C26.5138 19.6916 26.509 19.7157 26.5037 19.7416C26.4877 19.821 26.4683 19.9172 26.4537 19.9839C26.4366 20.0724 26.4087 20.2041 26.3915 20.2754C26.3744 20.3466 26.3401 20.4783 26.3143 20.5668C26.2907 20.6553 26.2564 20.7783 26.2393 20.8366C26.2221 20.8971 26.1942 20.9942 26.1728 21.0525C26.1535 21.113 26.1256 21.1885 26.1106 21.2252C26.0956 21.2619 26.042 21.3979 25.9926 21.5274C25.9412 21.6569 25.8725 21.8275 25.8382 21.9052C25.8091 21.9711 25.7477 22.0991 25.693 22.2128C25.6832 22.2332 25.6736 22.2531 25.6645 22.2722C25.6023 22.3952 25.5294 22.5226 25.5015 22.5528C25.4543 22.6046 25.45 22.6046 25.4265 22.5658C25.4136 22.5442 25.3685 22.4816 25.3278 22.4255C25.2849 22.3715 25.2291 22.2873 25.2013 22.2398C25.1734 22.1923 25.1391 22.1427 25.1262 22.1319C25.1112 22.1211 25.0276 21.998 24.9375 21.862C24.8474 21.726 24.723 21.5447 24.6651 21.4627C24.6051 21.3806 24.4742 21.1907 24.3756 21.0417C24.2748 20.8928 24.1526 20.7136 24.1032 20.6423C24.0539 20.5711 23.9896 20.4869 23.9638 20.4545C23.9359 20.42 23.9124 20.3833 23.9124 20.3725C23.9124 20.3617 23.8802 20.3099 23.8437 20.2603C23.8051 20.2106 23.7537 20.1394 23.7279 20.1027C23.7043 20.0681 23.6271 19.9559 23.5585 19.8544C23.4899 19.753 23.3848 19.604 23.3226 19.5198C23.2625 19.4356 23.1703 19.319 23.1167 19.2586C23.1086 19.2491 23.0998 19.2388 23.0905 19.2279C23.0405 19.1692 22.9763 19.094 22.9366 19.0449C22.8894 18.9888 22.7714 18.8636 22.6771 18.7664C22.5806 18.6714 22.4347 18.5333 22.3554 18.462C22.2739 18.3886 22.1345 18.2721 22.0466 18.2008C21.9586 18.1274 21.8428 18.0389 21.7892 18.0001C21.77 17.9869 21.7435 17.9689 21.7135 17.9485C21.6597 17.9118 21.5949 17.8678 21.5426 17.8317C21.4611 17.7777 21.3667 17.7151 21.3345 17.6935C21.3002 17.6698 21.2702 17.6525 21.2638 17.6525C21.2573 17.6525 21.2166 17.6266 21.1737 17.5964C21.1287 17.5662 20.9185 17.4561 20.7062 17.3503C20.4939 17.2445 20.3073 17.156 20.2944 17.156C20.2794 17.156 20.2301 17.1366 20.1872 17.1128C20.1421 17.0891 20.0907 17.0697 20.0735 17.0697C20.0564 17.0697 20.0178 17.0567 19.9877 17.0416C19.9577 17.0265 19.8483 16.9876 19.7411 16.9552C19.6339 16.9229 19.5202 16.8862 19.4837 16.8732C19.4473 16.8603 19.3615 16.8365 19.2907 16.8192C19.22 16.802 19.0848 16.7739 18.9905 16.7566C18.9688 16.7522 18.9447 16.7473 18.9196 16.7421C18.8353 16.7249 18.739 16.7052 18.6795 16.6919C18.6023 16.6746 18.4629 16.6552 18.3685 16.6487C18.3266 16.6449 18.2566 16.6393 18.1746 16.6328C18.0723 16.6247 17.9514 16.6151 17.8431 16.6055C17.5515 16.5818 17.4292 16.5818 17.1461 16.6055C17.0356 16.6156 16.9103 16.6258 16.8066 16.6341C16.7332 16.6401 16.6705 16.6451 16.6314 16.6487C16.5371 16.6552 16.3977 16.6746 16.3204 16.6919C16.261 16.7052 16.1646 16.7249 16.0804 16.7421C16.0552 16.7473 16.0312 16.7522 16.0095 16.7566C15.9151 16.7739 15.78 16.802 15.7092 16.8192C15.6385 16.8365 15.5527 16.8603 15.5162 16.8732C15.4798 16.8862 15.3661 16.9229 15.2589 16.9552C15.1516 16.9876 15.0423 17.0265 15.0122 17.0416C14.9822 17.0567 14.9436 17.0697 14.9265 17.0697C14.9093 17.0697 14.8578 17.0891 14.8149 17.1128C14.7699 17.1366 14.7206 17.156 14.7077 17.156C14.6927 17.156 14.5061 17.2445 14.2938 17.3503C14.0815 17.4561 13.8713 17.5662 13.8284 17.5964C13.7834 17.6266 13.7426 17.6525 13.7362 17.6525C13.7298 17.6525 13.6997 17.6698 13.6676 17.6935C13.6516 17.7036 13.623 17.7226 13.5885 17.7455C13.5491 17.7716 13.502 17.8029 13.4574 17.8317C13.3938 17.8743 13.3154 17.9282 13.2579 17.9677C13.2397 17.9802 13.2236 17.9913 13.2108 18.0001C13.1572 18.0389 13.0413 18.1274 12.9534 18.2008C12.8655 18.2721 12.7261 18.3886 12.6446 18.462C12.5631 18.5333 12.4087 18.6822 12.3015 18.7945C12.1942 18.9067 12.087 19.019 12.0634 19.0427C12.0398 19.0686 12.0055 19.1097 11.9883 19.1334C11.9712 19.1593 11.909 19.2349 11.8489 19.3039C11.791 19.3709 11.7053 19.4766 11.6624 19.5371C11.6457 19.5614 11.6218 19.5956 11.5952 19.6339C11.5533 19.6939 11.5044 19.764 11.4651 19.822C11.3986 19.917 11.3192 20.0336 11.2871 20.0811C11.2608 20.1216 11.216 20.1822 11.1806 20.2301C11.1726 20.2409 11.1651 20.2511 11.1584 20.2603C11.1198 20.3099 11.0876 20.3617 11.0876 20.3725C11.0876 20.3833 11.064 20.42 11.0361 20.4545C11.0104 20.4869 10.9461 20.5711 10.8967 20.6423C10.8474 20.7136 10.7252 20.8928 10.6244 21.0417C10.5466 21.1591 10.4502 21.298 10.3866 21.3896C10.3695 21.4142 10.3548 21.4354 10.3434 21.4519C10.2877 21.5296 10.1547 21.7239 10.0475 21.8836L10.0065 21.9447C9.9132 22.0837 9.82517 22.2148 9.80084 22.2506C9.78923 22.2665 9.77346 22.2878 9.75612 22.3113C9.72861 22.3485 9.69716 22.391 9.67216 22.4255C9.63142 22.4794 9.58638 22.5442 9.57351 22.5658C9.54992 22.6046 9.54563 22.6046 9.49845 22.5528C9.47057 22.5226 9.39766 22.3952 9.33546 22.2722C9.27541 22.147 9.2025 21.9916 9.17247 21.9268C9.14245 21.862 9.09312 21.7455 9.06095 21.6677C9.03864 21.61 9.01159 21.5451 8.99301 21.5005C8.98658 21.4851 8.98117 21.4721 8.97731 21.4627C8.96015 21.426 8.92799 21.3439 8.90654 21.2792C8.89242 21.2404 8.87445 21.1885 8.8577 21.1401C8.84647 21.1076 8.8358 21.0768 8.82719 21.0525C8.80789 20.9942 8.77786 20.8971 8.76071 20.8366C8.74355 20.7783 8.70924 20.6553 8.68565 20.5668C8.65991 20.4783 8.6256 20.3466 8.60844 20.2754C8.59128 20.2041 8.5634 20.0724 8.54625 19.9839C8.52694 19.8954 8.49906 19.7551 8.48405 19.6709C8.4669 19.5867 8.43687 19.3881 8.41542 19.2284C8.38326 18.9931 8.37682 18.7794 8.37468 18.1274C8.37468 17.469 8.38111 17.2661 8.41328 17.0373C8.43473 16.884 8.46046 16.7027 8.47333 16.6379C8.48464 16.581 8.50423 16.4724 8.52046 16.3824C8.52269 16.37 8.52487 16.358 8.52694 16.3465C8.5441 16.2515 8.57627 16.0961 8.59772 16.0011C8.60405 15.9756 8.61132 15.946 8.61902 15.9147C8.63997 15.8294 8.6641 15.7312 8.68136 15.6665C8.7028 15.578 8.73283 15.483 8.74569 15.4571C8.76071 15.429 8.77143 15.3902 8.77143 15.3707C8.77143 15.3492 8.79073 15.2801 8.81432 15.2196C8.82004 15.2045 8.82664 15.1869 8.8337 15.1681C8.85575 15.1093 8.88223 15.0388 8.90011 14.993C8.92155 14.9304 8.96659 14.8116 8.99876 14.7274C9.02878 14.6432 9.0631 14.5655 9.07382 14.5547C9.08454 14.5439 9.09312 14.518 9.09312 14.5008C9.09527 14.4835 9.17247 14.3086 9.26898 14.1122C9.36549 13.9158 9.48558 13.6826 9.53705 13.5941C9.59067 13.5056 9.64429 13.4128 9.65715 13.389C9.67002 13.3653 9.70648 13.307 9.7365 13.2595C9.76653 13.212 9.80299 13.1602 9.818 13.1473C9.83087 13.1321 9.84373 13.1062 9.84373 13.0933C9.84373 13.0782 9.8759 13.0264 9.91451 12.9789C9.95311 12.9314 10.0132 12.8493 10.0475 12.7954C10.0839 12.7414 10.1483 12.6507 10.1933 12.5903C10.2362 12.532 10.2855 12.4673 10.3005 12.45C10.3051 12.4439 10.3156 12.431 10.3296 12.4137C10.3554 12.382 10.3932 12.3355 10.4292 12.2881C10.4871 12.2168 10.6437 12.0377 10.7766 11.8887C10.9096 11.7398 11.1155 11.5304 11.2313 11.4224C11.3471 11.3145 11.5337 11.1504 11.6452 11.0554C11.7567 10.9626 11.9111 10.8374 11.9883 10.7791C12.0655 10.7208 12.1728 10.641 12.2307 10.6C12.2498 10.5867 12.2729 10.5703 12.2973 10.553C12.3443 10.5198 12.3963 10.483 12.4344 10.4575C12.4902 10.4165 12.5652 10.369 12.5996 10.3474C12.6339 10.328 12.6939 10.2934 12.7282 10.2697C12.7585 10.2506 12.8424 10.2012 12.9222 10.1542C12.9327 10.148 12.9432 10.1419 12.9534 10.1358C13.0145 10.1014 13.0807 10.0638 13.1269 10.0375C13.1473 10.0259 13.1638 10.0166 13.1743 10.0106C13.2065 9.99335 13.3266 9.93075 13.4424 9.87462C13.556 9.81634 13.689 9.75158 13.7362 9.72999C13.7834 9.71056 13.8563 9.67818 13.897 9.65875C13.9286 9.64539 13.9819 9.6217 14.0293 9.60066C14.0431 9.5945 14.0565 9.58857 14.0686 9.5832C14.1222 9.55729 14.1951 9.53139 14.2295 9.52275C14.2638 9.51412 14.3131 9.49469 14.3367 9.47742C14.3603 9.46231 14.3989 9.44936 14.4225 9.44936C14.4461 9.4472 14.504 9.42993 14.5511 9.40618C14.5983 9.38244 14.6562 9.36301 14.6798 9.36301C14.7034 9.36301 14.7613 9.34358 14.8085 9.31983C14.8557 9.29609 14.9136 9.27882 14.9372 9.27666C14.9608 9.27666 15.0358 9.25723 15.1045 9.23348C15.1709 9.20974 15.2439 9.19031 15.2653 9.19031C15.2846 9.19031 15.3511 9.1752 15.409 9.15793C15.469 9.14066 15.5934 9.11044 15.6878 9.09101C15.7822 9.07158 15.9451 9.04352 16.0524 9.0284C16.1596 9.01329 16.314 8.98955 16.3955 8.97659Z" fill="#3C49EC"/>
<path d="M17.8817 22.0045C17.7852 21.9829 17.6501 21.9699 17.4828 21.9721H17.485C17.3349 21.9743 17.1805 21.9872 17.1032 22.0066C17.0325 22.0261 16.9059 22.0628 16.8244 22.093C16.743 22.1211 16.6057 22.1815 16.5242 22.2268C16.4427 22.2743 16.2969 22.3844 16.2025 22.4729C16.1082 22.5614 15.9923 22.6888 15.9452 22.7557C15.898 22.8226 15.8186 22.9327 15.7672 23.0018C15.7178 23.0687 15.6771 23.1335 15.6771 23.1464C15.6792 23.1572 15.6621 23.1831 15.6428 23.2004C15.6235 23.2177 15.5763 23.2803 15.5355 23.3407C15.5127 23.3752 15.4726 23.4338 15.4304 23.4956C15.4012 23.5383 15.371 23.5825 15.3447 23.6214C15.2782 23.7164 15.1924 23.8416 15.1517 23.902C15.1109 23.9603 15.023 24.0877 14.9586 24.1826C14.8922 24.2776 14.8042 24.4093 14.7613 24.4741C14.7163 24.5388 14.6756 24.5971 14.6691 24.6036C14.6627 24.6101 14.6219 24.6683 14.579 24.7331C14.565 24.7533 14.5491 24.7763 14.5328 24.8001C14.4967 24.8526 14.4583 24.9083 14.4332 24.9425C14.3989 24.9943 14.3689 25.0418 14.3689 25.0504C14.371 25.0612 14.3581 25.0785 14.3431 25.0915C14.3281 25.1044 14.2681 25.1886 14.208 25.275C14.1501 25.3635 14.0965 25.439 14.0901 25.4455C14.0836 25.452 14.0429 25.5103 13.9979 25.575C13.9549 25.6398 13.8734 25.7629 13.8156 25.8449C13.7598 25.9269 13.6762 26.0499 13.629 26.1147C13.5839 26.1795 13.5239 26.268 13.4982 26.309C13.4934 26.316 13.4878 26.3243 13.4815 26.3336C13.4509 26.3788 13.4047 26.447 13.3673 26.4989C13.3443 26.532 13.3157 26.5719 13.2886 26.6096C13.2628 26.6457 13.2383 26.6798 13.2215 26.704C13.185 26.7537 13.0885 26.8962 13.007 27.0214L12.956 27.0965C12.8933 27.1887 12.8414 27.265 12.8312 27.2804C12.8162 27.2977 12.7711 27.3581 12.7347 27.4164C12.6961 27.4725 12.5803 27.6409 12.4773 27.7942C12.3765 27.9453 12.2779 28.0835 12.2586 28.1007C12.2371 28.118 12.2221 28.1396 12.2243 28.1482C12.2243 28.159 12.1985 28.2022 12.1642 28.2454C12.1321 28.2907 12.0999 28.336 12.0892 28.349C12.0878 28.3507 12.086 28.353 12.0838 28.3558C12.0718 28.3711 12.0483 28.4012 12.0248 28.4267C11.9991 28.4569 11.9626 28.5044 11.9455 28.5325C11.9283 28.5584 11.8747 28.6318 11.8254 28.6922C11.7782 28.7527 11.7331 28.8196 11.7246 28.839C11.7138 28.8692 11.7289 28.8908 11.7889 28.9297C11.8339 28.9556 11.9626 29.0225 12.0741 29.0765C12.1857 29.1304 12.3358 29.193 12.4066 29.2168L12.4071 29.217C12.4778 29.2407 12.574 29.2729 12.621 29.288C12.6682 29.3031 12.8076 29.3355 12.932 29.3593C13.0564 29.383 13.2773 29.4067 13.4252 29.4111C13.6418 29.4197 13.7405 29.4111 13.94 29.3722C14.0751 29.3463 14.2595 29.301 14.3474 29.2729C14.4354 29.2448 14.6091 29.1693 14.7335 29.1088C14.8578 29.0484 14.9972 28.9707 15.0444 28.9383C15.0668 28.923 15.0974 28.9013 15.1291 28.8788C15.1642 28.8539 15.2007 28.8281 15.2289 28.8088C15.2825 28.7699 15.3597 28.7095 15.3983 28.6728C15.4352 28.6396 15.5195 28.5569 15.5971 28.4806L15.6213 28.4569C15.7028 28.3749 15.8272 28.2324 15.8958 28.1439C15.9666 28.0554 16.0352 27.9669 16.0481 27.9496C16.0631 27.9323 16.121 27.8482 16.1768 27.7661C16.2207 27.6998 16.2952 27.5933 16.3595 27.5015C16.3768 27.4767 16.3934 27.453 16.4084 27.4315C16.4792 27.3301 16.5993 27.1552 16.6743 27.0429C16.7494 26.9307 16.8459 26.7882 16.8888 26.7299C16.911 26.697 16.9395 26.6564 16.9661 26.6186C16.9884 26.587 17.0092 26.5573 17.0239 26.5356C17.0453 26.506 17.0767 26.4604 17.1072 26.4162C17.1256 26.3895 17.1437 26.3633 17.159 26.3414C17.2019 26.2809 17.2855 26.1579 17.3456 26.065C17.4228 25.9506 17.47 25.8988 17.5 25.8988C17.53 25.8988 17.5772 25.9506 17.6544 26.065C17.7145 26.1579 17.7981 26.2809 17.841 26.3414C17.8563 26.3633 17.8744 26.3895 17.8928 26.4162C17.9233 26.4604 17.9547 26.506 17.9761 26.5356C17.9907 26.5573 18.0116 26.587 18.0339 26.6186C18.0605 26.6564 18.089 26.697 18.1112 26.7299C18.1444 26.7751 18.2149 26.8784 18.2869 26.9839C18.3078 27.0147 18.3289 27.0456 18.3493 27.0753C18.4372 27.2049 18.568 27.3948 18.6388 27.4963C18.7096 27.5977 18.8039 27.7337 18.8468 27.7985C18.8897 27.8633 18.9369 27.9323 18.9519 27.9496C18.9648 27.9669 19.0334 28.0554 19.1042 28.1439C19.1728 28.2324 19.2972 28.3749 19.3787 28.4569L19.4029 28.4806C19.4805 28.5569 19.5648 28.6396 19.6017 28.6728C19.6425 28.7095 19.724 28.7742 19.784 28.8174C19.8419 28.8606 19.9642 28.9405 20.0521 28.9923C20.14 29.0441 20.2751 29.1175 20.3523 29.1542C20.4295 29.1887 20.5646 29.2427 20.6526 29.2729C20.7405 29.301 20.9249 29.3463 21.06 29.3722C21.2595 29.4111 21.3581 29.4197 21.5748 29.4111C21.7227 29.4067 21.9436 29.383 22.068 29.3593C22.1924 29.3355 22.3318 29.3031 22.379 29.288C22.426 29.2729 22.5222 29.2407 22.5929 29.217L22.5934 29.2168C22.6642 29.193 22.7757 29.1499 22.8401 29.1218C22.9044 29.0937 22.973 29.0614 22.9902 29.0484C23.0074 29.0376 23.0438 29.0182 23.0695 29.0074C23.0974 28.9944 23.1575 28.9621 23.2047 28.9318C23.269 28.8908 23.2862 28.8692 23.2754 28.839C23.2669 28.8196 23.2218 28.7527 23.1746 28.6922C23.1253 28.6318 23.0717 28.5584 23.0545 28.5325C23.0374 28.5044 23.0009 28.4569 22.9752 28.4267C22.9473 28.3965 22.9194 28.3598 22.9108 28.349C22.9053 28.3422 22.8939 28.3267 22.8794 28.307C22.866 28.2888 22.8501 28.2671 22.8336 28.2454C22.8015 28.2022 22.7757 28.159 22.7757 28.1482C22.7779 28.1396 22.7629 28.118 22.7414 28.1007C22.7221 28.0835 22.6235 27.9453 22.5227 27.7942C22.4197 27.6409 22.3039 27.4725 22.2653 27.4164C22.2289 27.3581 22.1838 27.2977 22.1688 27.2804C22.1646 27.2741 22.1522 27.2561 22.1342 27.2298C22.0968 27.1755 22.0351 27.0858 21.9715 26.9911C21.8771 26.8487 21.7763 26.6997 21.7463 26.6565C21.7163 26.6134 21.6627 26.5378 21.6262 26.4925C21.5898 26.445 21.5426 26.3781 21.5233 26.3414C21.504 26.3047 21.4396 26.2075 21.3796 26.1255C21.3195 26.0435 21.2295 25.9118 21.178 25.8341C21.1244 25.7563 21.0279 25.616 20.9635 25.521C20.8971 25.4261 20.8113 25.2987 20.7727 25.2404C20.7319 25.18 20.6847 25.1174 20.6654 25.1001C20.6461 25.0828 20.629 25.0612 20.6311 25.0504C20.6311 25.0418 20.6011 24.9943 20.5668 24.9425C20.5417 24.9083 20.5034 24.8526 20.4672 24.8001C20.4509 24.7764 20.435 24.7533 20.421 24.7331C20.3781 24.6683 20.3373 24.6101 20.3309 24.6036C20.3244 24.5971 20.2837 24.5388 20.2387 24.4741C20.1958 24.4093 20.1078 24.2776 20.0414 24.1826C19.977 24.0877 19.8891 23.9603 19.8483 23.902C19.8076 23.8416 19.7218 23.7164 19.6553 23.6214C19.629 23.5825 19.5988 23.5383 19.5696 23.4955C19.5273 23.4338 19.4873 23.3752 19.4645 23.3407C19.4237 23.2803 19.3765 23.2177 19.3572 23.2004C19.3379 23.1831 19.3208 23.1572 19.3229 23.1464C19.3229 23.1335 19.2822 23.0687 19.2328 23.0018C19.1814 22.9327 19.102 22.8226 19.0548 22.7557C19.0077 22.6888 18.8918 22.5614 18.7975 22.4729C18.7031 22.3844 18.5573 22.2743 18.4758 22.2268C18.3943 22.1815 18.257 22.1211 18.1756 22.093C18.0941 22.0649 17.9611 22.0239 17.8817 22.0045Z" fill="#3C49EC"/>
</g>
<g id="alpina tech">
<path d="M56.7297 8.6828H59.7174V22.1237H56.7297V20.1882C55.6784 21.6129 54.0462 22.4731 51.8884 22.4731C48.1261 22.4731 45 19.3817 45 15.4032C45 11.3978 48.1261 8.33333 51.8884 8.33333C54.0462 8.33333 55.6784 9.19355 56.7297 10.5914V8.6828ZM52.3587 19.7043C54.8485 19.7043 56.7297 17.9032 56.7297 15.4032C56.7297 12.9032 54.8485 11.1021 52.3587 11.1021C49.8689 11.1021 47.9877 12.9032 47.9877 15.4032C47.9877 17.9032 49.8689 19.7043 52.3587 19.7043Z" fill="white"/>
<path d="M62.0933 22.1237V2.5H65.081V22.1237H62.0933Z" fill="white"/>
<path d="M75.2725 8.33333C79.0349 8.33333 82.1609 11.4247 82.1609 15.4032C82.1609 19.4086 79.0349 22.4731 75.2725 22.4731C73.1147 22.4731 71.4825 21.6129 70.4313 20.2151V27.5H67.4435V8.6828H70.4313V10.6183C71.4825 9.19355 73.1147 8.33333 75.2725 8.33333ZM74.8022 19.7043C77.292 19.7043 79.1732 17.9032 79.1732 15.4032C79.1732 12.9032 77.292 11.1021 74.8022 11.1021C72.3125 11.1021 70.4313 12.9032 70.4313 15.4032C70.4313 17.9032 72.3125 19.7043 74.8022 19.7043Z" fill="white"/>
<path d="M85.2561 6.66667C84.2049 6.66667 83.3473 5.80645 83.3473 4.81183C83.3473 3.79032 84.2049 2.95699 85.2561 2.95699C86.3074 2.95699 87.1649 3.79032 87.1649 4.81183C87.1649 5.80645 86.3074 6.66667 85.2561 6.66667ZM83.7622 22.1237V8.6828H86.75V22.1237H83.7622Z" fill="white"/>
<path d="M96.3882 8.33333C99.4866 8.33333 101.7 10.3763 101.7 13.871V22.1237H98.712V14.1667C98.712 12.1237 97.4948 11.0484 95.6136 11.0484C93.6494 11.0484 92.1002 12.1774 92.1002 14.9194V22.1237H89.1125V8.6828H92.1002V10.4032C93.0131 9.00538 94.507 8.33333 96.3882 8.33333Z" fill="white"/>
<path d="M114.765 8.6828H117.753V22.1237H114.765V20.1882C113.714 21.6129 112.082 22.4731 109.924 22.4731C106.162 22.4731 103.036 19.3817 103.036 15.4032C103.036 11.3978 106.162 8.33333 109.924 8.33333C112.082 8.33333 113.714 9.19355 114.765 10.5914V8.6828ZM110.394 19.7043C112.884 19.7043 114.765 17.9032 114.765 15.4032C114.765 12.9032 112.884 11.1021 110.394 11.1021C107.905 11.1021 106.023 12.9032 106.023 15.4032C106.023 17.9032 107.905 19.7043 110.394 19.7043Z" fill="white"/>
<path d="M133.657 11.4785H130.226V17.9301C130.226 19.6505 131.388 19.6237 133.657 19.5161V22.1237C129.064 22.6613 127.239 21.4247 127.239 17.9301V11.4785H124.694V8.6828H127.239V5.77957L130.226 4.91935V8.6828H133.657V11.4785Z" fill="white"/>
<path d="M137.044 16.6398C137.514 18.7366 139.257 19.8118 141.47 19.8118C143.13 19.8118 144.375 19.086 145.039 18.1452L147.501 19.543C146.229 21.371 144.154 22.4731 141.443 22.4731C136.878 22.4731 133.918 19.4355 133.918 15.4032C133.918 11.4247 136.878 8.33333 141.221 8.33333C145.343 8.33333 148.165 11.5591 148.165 15.4301C148.165 15.8333 148.11 16.2634 148.055 16.6398H137.044ZM137.016 14.2742H145.15C144.735 11.9624 142.992 10.9677 141.194 10.9677C138.953 10.9677 137.431 12.2581 137.016 14.2742Z" fill="white"/>
<path d="M156.135 22.4731C151.958 22.4731 148.832 19.3817 148.832 15.4032C148.832 11.3978 151.958 8.33333 156.135 8.33333C158.846 8.33333 161.198 9.7043 162.304 11.8011L159.732 13.2527C159.123 11.9892 157.768 11.1828 156.108 11.1828C153.673 11.1828 151.82 12.9839 151.82 15.4032C151.82 17.8226 153.673 19.6237 156.108 19.6237C157.768 19.6237 159.123 18.7903 159.787 17.5538L162.36 18.9785C161.198 21.1022 158.846 22.4731 156.135 22.4731Z" fill="white"/>
<path d="M170.688 8.33333C173.787 8.33333 176 10.3763 176 13.871V22.1237H173.012V14.1667C173.012 12.1237 171.795 11.0484 169.914 11.0484C167.95 11.0484 166.4 12.1774 166.4 14.9194V22.1237H163.413V3.30645H166.4V10.4032C167.313 9.00538 168.807 8.33333 170.688 8.33333Z" fill="white"/>
</g>
</g>
</svg>
